<mxfile host="app.diagrams.net" modified="2023-05-10T13:32:33.165Z" agent="Mozilla/5.0 (Windows NT 10.0; Win64; x64) AppleWebKit/537.36 (KHTML, like Gecko) Chrome/112.0.0.0 Safari/537.36" version="21.2.1" etag="KL1jGwguA0qm2sI-h6Vj" type="github">
  <diagram name="第 1 页" id="ZOfL5v1Iq-hXKwLoJSRL">
    <mxGraphModel>
      <root>
        <mxCell id="0" />
        <mxCell id="1" parent="0" />
      </root>
    </mxGraphModel>
  </diagram>
</mxfile>
